<?xml version="1.0" standalone="no"?><!DOCTYPE svg PUBLIC "-//W3C//DTD SVG 1.1//EN" "http://www.w3.org/Graphics/SVG/1.1/DTD/svg11.dtd"><svg class="icon" height="512" viewBox="0 0 1024 1024" version="1.1" xmlns="http://www.w3.org/2000/svg"><path d="M901.394218 622.487487c0 215.049216-174.328833 389.386134-389.386134 389.386133-215.073469 0-389.402302-174.336918-389.402302-389.386133 0-215.065385 174.328833-610.361107 389.402302-610.361107C727.065385 12.12638 901.394218 407.422102 901.394218 622.487487z" fill="#FFFFFA" /><path d="M512.008084 12.12638v999.74724c215.0573 0 389.386134-174.336918 389.386134-389.386133 0-215.065385-174.328833-610.361107-389.386134-610.361107z" fill="#F9F9E4" /><path d="M270.709298 843.397786c35.934505 39.265217 75.506924 58.497655 54.471698 77.746262-21.051395 19.248607-67.228649 2.999258-103.171238-36.265959-35.918336-39.273301-47.988126-86.719783-26.936731-105.976474 21.035227-19.232438 39.717935 25.198617 75.636271 64.496171z" fill="#7BC67B" /><path d="M753.290702 843.397786c-35.934505 39.265217-75.506924 58.497655-54.471698 77.746262 21.051395 19.248607 67.228649 2.999258 103.171238-36.265959 35.918336-39.273301 47.988126-86.719783 26.936731-105.976474-21.035227-19.232438-39.717935 25.198617-75.636271 64.496171z" fill="#54AF79" /><path d="M512.008084 1024c-221.403439 0-401.528682-180.117159-401.528681-401.512513 0-112.710656 45.368828-266.489318 115.596734-391.762904C309.481376 81.941989 411.027679 0 512.008084 0c100.972321 0 202.518624 81.941989 285.915779 230.724583C868.151769 355.998168 913.520597 509.77683 913.520597 622.487487c0 221.395355-180.117159 401.512513-401.512513 401.512513zM512.008084 24.252759C388.12499 24.252759 292.940994 161.046406 247.232628 242.584182 178.888352 364.502803 134.732162 513.624935 134.732162 622.487487c0 208.024 169.251922 377.259754 377.275922 377.259754C720.024 999.747241 889.267838 830.511487 889.267838 622.487487c0-108.862552-44.15619-257.984684-112.500466-379.903305C731.06709 161.046406 635.883094 24.252759 512.008084 24.252759z" fill="#33363A" /><path d="M740.703519 723.298123c-50.672098 109.743735-154.134369 169.898663-231.112626 134.360286-76.970174-35.538377-41.213522-100.155811 9.458576-209.907631 50.65593-109.727567 97.027205-223.036458 173.997379-187.481913 76.978258 35.522208 98.312602 153.301691 47.656671 263.029258z" fill="#7BC67B" /><path d="M693.054932 460.268865c-76.970174-35.546461-123.349533 77.754346-173.997379 187.481913l-7.041384 15.198395v195.711683c76.703393 33.218196 178.564982-26.750793 228.695435-135.362733 50.647846-109.727567 29.313502-227.50705-47.656672-263.029258z" fill="#54AF79" /><path d="M288.090443 311.623703m-24.737815 0a24.737814 24.737814 0 1 0 49.475629 0 24.737814 24.737814 0 1 0-49.475629 0Z" fill="#7BC67B" /><path d="M377.356765 193.294491m-9.676851 0a9.676851 9.676851 0 1 0 19.353702 0 9.676851 9.676851 0 1 0-19.353702 0Z" fill="#7BC67B" /><path d="M326.814015 453.60744m-13.985758 0a13.985758 13.985758 0 1 0 27.971516 0 13.985758 13.985758 0 1 0-27.971516 0Z" fill="#7BC67B" /><path d="M544.813983 915.266796m-13.985758 0a13.985758 13.985758 0 1 0 27.971516 0 13.985758 13.985758 0 1 0-27.971516 0Z" fill="#54AF79" /><path d="M479.000079 901.281038m-13.985758 0a13.985758 13.985758 0 1 0 27.971516 0 13.985758 13.985758 0 1 0-27.971516 0Z" fill="#7BC67B" /><path d="M678.099064 242.341654m-28.594003 0a28.594003 28.594003 0 1 0 57.188006 0 28.594003 28.594003 0 1 0-57.188006 0Z" fill="#54AF79" /><path d="M759.216459 364.324949m-27.971516 0a27.971516 27.971516 0 1 0 55.943032 0 27.971516 27.971516 0 1 0-55.943032 0Z" fill="#54AF79" /><path d="M361.107416 739.280691m-27.963431 0a27.963431 27.963431 0 1 0 55.926863 0 27.963431 27.963431 0 1 0-55.926863 0Z" fill="#7BC67B" /><path d="M542.121927 328.964426c0 65.547124 28.278717 118.693004-37.276491 118.693004s-118.693004-53.137795-118.693004-118.693004 53.129711-118.717256 118.693004-118.717256c65.555208 0.008084 37.276491 53.170132 37.276491 118.717256z" fill="#7BC67B" /><path d="M512.008084 447.390649c56.193643-3.89661 30.113843-55.409471 30.113843-118.418139s26.087885-114.545782-30.113843-118.442391v236.86053z" fill="#54AF79" /></svg>